# xmcd CD database file
#
# Track frame offsets:
#	150
#	15061
#	29739
#	60992
#	73329
#	86075
#	98094
#	113216
#	144143
#	164967
#	182058
#	208145
#	218870
#	229815
#	243847
#	258812
#	280882
#	308795
#
# Disc length: 4418 seconds
#
# Revision: 1
# Processed by: cddbd v1.5.1PL0 Copyright (c) Steve Scherf et al.
# Submitted via: CDex 1.50
#
DISCID=fe114012
DTITLE=Various Artist - The Guitar Albumn
DYEAR=1900
DGENRE=Blues
TTITLE0=Slinky
TTITLE1=Sweet Dreams
TTITLE2=Walk On hot Coals
TTITLE3=Every Day I have The Blues
TTITLE4=Sliding
TTITLE5=Lawdy Miss Clawdy
TTITLE6=Tribute To Elmore James
TTITLE7=Have you Ever Loved A Woman
TTITLE8=Tatooed Lady
TTITLE9=We The People
TTITLE10=I may Be Right, I May Be Wrong
TTITLE11=After Hours
TTITLE12=Let It Rain
TTITLE13=Extrapolation
TTITLE14=Messiah Will Come Again
TTITLE15=Sligo
TTITLE16=Losing you
TTITLE17=Filthy Teddy
EXTD=
EXTT0=
EXTT1=
EXTT2=
EXTT3=
EXTT4=
EXTT5=
EXTT6=
EXTT7=
EXTT8=
EXTT9=
EXTT10=
EXTT11=
EXTT12=
EXTT13=
EXTT14=
EXTT15=
EXTT16=
EXTT17=
PLAYORDER=
